<?xml version="1.0" encoding="UTF-8"?>
<!DOCTYPE svg PUBLIC "-//W3C//DTD SVG 1.1//EN" "http://www.w3.org/Graphics/SVG/1.1/DTD/svg11.dtd">
<svg xmlns="http://www.w3.org/2000/svg" version="1.1" width="1398px" height="901px" style="shape-rendering:geometricPrecision; text-rendering:geometricPrecision; image-rendering:optimizeQuality; fill-rule:evenodd; clip-rule:evenodd" xmlns:xlink="http://www.w3.org/1999/xlink">
<g><path style="opacity:0.942" fill="#1c313f" d="M 632.5,7.5 C 677.501,7.33334 722.501,7.50001 767.5,8C 791.975,11.0645 813.141,20.8979 831,37.5C 858.528,27.2527 882.861,32.2527 904,52.5C 916.58,66.9153 920.746,83.582 916.5,102.5C 950.117,113.025 965.284,136.025 962,171.5C 993.903,181.562 1008.4,203.229 1005.5,236.5C 1004.76,239.775 1003.76,242.942 1002.5,246C 1016.97,250.146 1028.3,258.48 1036.5,271C 1049.81,294.404 1047.98,316.571 1031,337.5C 976.226,389.432 921.06,440.766 865.5,491.5C 824.954,521.74 779.288,538.74 728.5,542.5C 728.167,543.167 727.833,543.833 727.5,544.5C 729,545.5 730.5,546.5 732,547.5C 736.333,548.295 740.5,549.462 744.5,551C 750.643,551.703 756.643,552.703 762.5,554C 770.587,554.516 778.587,554.183 786.5,553C 791.589,553.874 796.256,555.874 800.5,559C 829.17,585.539 857.503,612.373 885.5,639.5C 891.356,656.562 885.356,666.228 867.5,668.5C 861.853,668.341 856.853,666.508 852.5,663C 827.112,639.068 801.612,615.235 776,591.5C 773.667,592.167 771.333,592.833 769,593.5C 758.778,591.79 748.444,590.457 738,589.5C 723.237,586.144 709.237,580.81 696,573.5C 664.022,603.228 632.188,633.062 600.5,663C 587.54,671.283 576.207,669.616 566.5,658C 564.916,651.681 565.25,645.514 567.5,639.5C 612.812,596.19 658.479,553.19 704.5,510.5C 708.194,507.154 712.527,505.154 717.5,504.5C 767.533,502.185 811.533,485.018 849.5,453C 898.16,406.694 947.16,360.86 996.5,315.5C 1005.77,305.669 1005.77,295.835 996.5,286C 994.913,285.138 993.246,284.471 991.5,284C 991.833,283.667 992.167,283.333 992.5,283C 984.806,280.474 977.473,281.141 970.5,285C 963.624,291.712 956.624,298.212 949.5,304.5C 938.108,311.971 927.608,310.971 918,301.5C 913.068,292.745 913.735,284.412 920,276.5C 933.565,264.39 946.898,252.057 960,239.5C 967.702,226.675 965.202,216.509 952.5,209C 946.458,207.174 940.458,207.341 934.5,209.5C 919.357,222.476 904.69,235.976 890.5,250C 878.295,257.17 867.462,255.67 858,245.5C 856.483,239.92 856.149,234.253 857,228.5C 857.684,226.641 858.684,224.974 860,223.5C 876.402,207.352 893.236,191.685 910.5,176.5C 916.375,171.707 919.709,165.54 920.5,158C 920.439,150.956 917.439,145.622 911.5,142C 907.875,140.194 904.041,139.028 900,138.5C 895.979,139.222 892.145,140.555 888.5,142.5C 872.41,156.642 856.743,171.309 841.5,186.5C 836.975,190.846 831.975,194.679 826.5,198C 814.769,201.971 805.436,198.804 798.5,188.5C 795.941,181.501 796.774,174.834 801,168.5C 826.043,145.92 850.543,122.753 874.5,99C 875.124,95.9847 876.124,93.1514 877.5,90.5C 876.181,86.8919 875.014,83.2252 874,79.5C 866.892,71.764 858.058,69.264 847.5,72C 845.972,73.3613 844.305,74.528 842.5,75.5C 810.018,105.592 777.684,135.926 745.5,166.5C 755.241,180.369 758.241,195.702 754.5,212.5C 745.755,239.18 726.755,253.846 697.5,256.5C 695.521,278.807 684.521,294.641 664.5,304C 664.833,304.333 665.167,304.667 665.5,305C 657.435,308.193 649.101,310.359 640.5,311.5C 638.341,317.378 636.341,323.378 634.5,329.5C 630.045,339.619 623.379,347.953 614.5,354.5C 603.821,361.259 592.155,365.425 579.5,367C 576.647,391.387 563.647,408.221 540.5,417.5C 535.984,418.232 531.651,419.399 527.5,421C 514.936,422.381 502.936,420.547 491.5,415.5C 442.815,460.46 394.482,505.626 346.5,551C 340.018,556.05 332.685,557.717 324.5,556C 312.55,552.141 308.05,543.974 311,531.5C 311.958,529.376 313.125,527.376 314.5,525.5C 362.542,480.491 410.542,435.491 458.5,390.5C 449.844,382.012 441.011,373.678 432,365.5C 414.666,346.852 410.666,325.519 420,301.5C 428.638,286.427 441.138,275.927 457.5,270C 455.926,268.174 455.093,266.007 455,263.5C 450.809,236.831 459.975,216.497 482.5,202.5C 488.31,200.094 493.977,197.428 499.5,194.5C 499.192,193.692 498.692,193.025 498,192.5C 496.227,158.934 511.394,137.101 543.5,127C 539.117,100.346 548.283,79.8461 571,65.5C 576.959,62.3825 583.792,59.8825 591.5,58C 600.079,57.1843 608.579,57.351 617,58.5C 616.17,45.534 616.336,32.534 617.5,19.5C 618.477,17.1569 619.81,14.9903 621.5,13C 624.873,10.3474 628.539,8.51411 632.5,7.5 Z M 658.5,46.5 C 694.502,46.3333 730.502,46.5 766.5,47C 778.425,49.2808 789.092,54.2808 798.5,62C 785.65,74.0179 772.65,85.8512 759.5,97.5C 745.387,111.291 731.221,124.957 717,138.5C 708.493,129.994 699.66,121.827 690.5,114C 705.833,113.667 721.167,113.333 736.5,113C 749.226,108.437 753.893,99.6039 750.5,86.5C 749.015,84.1477 747.682,81.8144 746.5,79.5C 743.538,79.0453 740.871,77.8786 738.5,76C 735.574,75.7822 732.74,75.2822 730,74.5C 713.538,75.8985 697.038,75.7318 680.5,74C 670.854,70.8551 663.854,64.6885 659.5,55.5C 658.698,52.5514 658.364,49.5514 658.5,46.5 Z M 599.5,95.5 C 606.093,94.815 612.093,96.315 617.5,100C 648.62,129.783 680.12,159.283 712,188.5C 717.92,205.297 711.92,215.297 694,218.5C 689.604,217.885 685.437,216.552 681.5,214.5C 650.484,185.316 619.317,156.316 588,127.5C 581.728,118.191 582.228,109.191 589.5,100.5C 592.657,98.2546 595.991,96.5879 599.5,95.5 Z M 555.5,164.5 C 558.304,163.362 561.304,163.195 564.5,164C 564.167,164.333 563.833,164.667 563.5,165C 568.208,165.022 572.208,166.689 575.5,170C 600.349,193.683 625.349,217.183 650.5,240.5C 658.332,249.887 657.998,259.054 649.5,268C 641.675,272.925 633.341,273.758 624.5,270.5C 597.228,246.008 570.895,221.175 545.5,196C 542.96,194.96 541.293,193.126 540.5,190.5C 537.847,176.371 542.847,167.704 555.5,164.5 Z M 510.5,232.5 C 517.41,231.655 523.743,233.155 529.5,237C 550.667,256.833 571.833,276.667 593,296.5C 600.213,310.084 597.046,320.251 583.5,327C 578.293,327.759 573.126,327.592 568,326.5C 544.678,306.509 522.011,285.842 500,264.5C 496.93,259.857 495.264,254.857 495,249.5C 495.804,245.355 497.637,241.688 500.5,238.5C 504.709,236.594 508.042,234.594 510.5,232.5 Z M 470.5,306.5 C 475.179,306.334 479.845,306.501 484.5,307C 486.624,307.958 488.624,309.125 490.5,310.5C 504.217,324.053 518.383,337.053 533,349.5C 542.168,363.496 539.335,374.33 524.5,382C 517.715,383.331 511.382,382.331 505.5,379C 490.365,365.534 475.532,351.7 461,337.5C 453.713,323.738 456.879,313.405 470.5,306.5 Z"/></g>
<g><path style="opacity:0.004" fill="#1c313f" d="M 603.5,55.5 C 604.833,56.1667 604.833,56.1667 603.5,55.5 Z"/></g>
<g><path style="opacity:0.876" fill="#1c313f" d="M 988.5,400.5 C 1001.03,398.427 1009.7,403.093 1014.5,414.5C 1016.28,426.567 1011.28,434.4 999.5,438C 985.425,439.425 976.759,433.258 973.5,419.5C 974.106,414.848 975.606,410.515 978,406.5C 981.457,404.16 984.957,402.16 988.5,400.5 Z"/></g>
<g><path style="opacity:0.918" fill="#1c313f" d="M 1030.5,433.5 C 1034.33,434.981 1038.33,436.147 1042.5,437C 1056.78,449.746 1070.95,462.579 1085,475.5C 1091.95,488.489 1089.11,498.489 1076.5,505.5C 1068.28,507.569 1060.62,506.402 1053.5,502C 1040.83,489.163 1027.83,476.663 1014.5,464.5C 1013.23,461.002 1011.9,457.502 1010.5,454C 1011.67,449.175 1013.67,444.675 1016.5,440.5C 1021,437.363 1025.67,435.03 1030.5,433.5 Z"/></g>
<g><path style="opacity:0.887" fill="#1c313f" d="M 350.5,674.5 C 380.5,674.5 410.5,674.5 440.5,674.5C 438.276,682.177 435.276,689.511 431.5,696.5C 408.841,697.666 386.174,697.833 363.5,697C 354.932,694.708 346.598,691.875 338.5,688.5C 341.058,682.608 345.058,677.941 350.5,674.5 Z"/></g>
<g><path style="opacity:0.853" fill="#1c313f" d="M 443.5,674.5 C 450.858,675.182 456.192,678.849 459.5,685.5C 460.667,711.494 460.833,737.494 460,763.5C 457.354,764.826 455.021,766.492 453,768.5C 447.038,763.374 441.204,758.041 435.5,752.5C 434.167,733.167 434.167,713.833 435.5,694.5C 438.292,687.821 440.958,681.154 443.5,674.5 Z"/></g>
<g><path style="opacity:0.841" fill="#1c313f" d="M 338.5,692.5 C 347.177,694.836 355.844,697.169 364.5,699.5C 364.833,717.179 364.5,734.846 363.5,752.5C 357.796,758.041 351.962,763.374 346,768.5C 343.979,766.492 341.646,764.826 339,763.5C 338.5,739.836 338.333,716.169 338.5,692.5 Z"/></g>
<g><path style="opacity:0.942" fill="#1c313f" d="M 256.5,701.5 C 276.5,701.5 296.5,701.5 316.5,701.5C 318.365,712.222 320.365,722.888 322.5,733.5C 308.118,733.184 293.785,733.517 279.5,734.5C 278.501,745.146 278.168,755.813 278.5,766.5C 279.552,766.351 280.552,766.517 281.5,767C 281.167,767.333 280.833,767.667 280.5,768C 291.167,768.333 301.833,768.667 312.5,769C 316.333,770.572 319.333,773.072 321.5,776.5C 322.833,801.167 322.833,825.833 321.5,850.5C 320.916,855.584 318.249,859.084 313.5,861C 313.833,861.333 314.167,861.667 314.5,862C 311.833,862.667 309.167,863.333 306.5,864C 287.836,864.5 269.17,864.667 250.5,864.5C 248.347,853.938 246.347,843.272 244.5,832.5C 258.216,832.815 271.883,832.482 285.5,831.5C 286.811,820.469 286.811,809.469 285.5,798.5C 284.975,797.808 284.308,797.308 283.5,797C 273.167,796.667 262.833,796.333 252.5,796C 250.664,794.581 248.664,793.414 246.5,792.5C 245.316,790.954 244.316,789.287 243.5,787.5C 242.334,762.84 242.167,738.173 243,713.5C 245.789,707.543 250.289,703.543 256.5,701.5 Z"/></g>
<g><path style="opacity:0.923" fill="#1c313f" d="M 475.5,701.5 C 488.5,701.5 501.5,701.5 514.5,701.5C 514.5,745.167 514.5,788.833 514.5,832.5C 525.833,832.5 537.167,832.5 548.5,832.5C 548.412,837.536 547.912,842.536 547,847.5C 545.944,853.171 544.444,858.671 542.5,864C 520.169,864.5 497.836,864.667 475.5,864.5C 475.5,810.167 475.5,755.833 475.5,701.5 Z"/></g>
<g><path style="opacity:0.937" fill="#1c313f" d="M 556.5,701.5 C 568.833,701.5 581.167,701.5 593.5,701.5C 593.5,755.833 593.5,810.167 593.5,864.5C 581.167,864.5 568.833,864.5 556.5,864.5C 556.5,810.167 556.5,755.833 556.5,701.5 Z"/></g>
<g><path style="opacity:0.925" fill="#1c313f" d="M 605.5,701.5 C 631.835,701.333 658.169,701.5 684.5,702C 689.885,703.883 693.885,707.383 696.5,712.5C 697.833,758.5 697.833,804.5 696.5,850.5C 694.401,858.217 689.401,862.717 681.5,864C 656.169,864.5 630.836,864.667 605.5,864.5C 605.5,810.167 605.5,755.833 605.5,701.5 Z M 643.5,730.5 C 648.875,730.172 654.208,730.505 659.5,731.5C 659.709,732.086 660.043,732.586 660.5,733C 659.167,766.333 659.167,799.667 660.5,833C 660.043,833.414 659.709,833.914 659.5,834.5C 654.208,835.495 648.875,835.828 643.5,835.5C 643.5,800.5 643.5,765.5 643.5,730.5 Z"/></g>
<g><path style="opacity:0.934" fill="#1c313f" d="M 736.5,701.5 C 749.833,701.5 763.167,701.5 776.5,701.5C 786.338,755.716 797.004,809.716 808.5,863.5C 795.846,864.666 783.18,864.833 770.5,864C 768.984,857.267 767.651,850.434 766.5,843.5C 759.637,844.819 752.803,844.819 746,843.5C 745.081,850.42 743.915,857.253 742.5,864C 729.838,864.5 717.171,864.667 704.5,864.5C 715.325,810.261 725.991,755.928 736.5,701.5 Z M 755.5,771.5 C 756.765,772.514 757.431,774.014 757.5,776C 759.349,789.824 761.349,803.657 763.5,817.5C 758.833,817.5 754.167,817.5 749.5,817.5C 750.97,808.84 752.47,800.173 754,791.5C 754.711,784.844 755.211,778.178 755.5,771.5 Z"/></g>
<g><path style="opacity:0.935" fill="#1c313f" d="M 814.5,701.5 C 840.502,701.333 866.502,701.5 892.5,702C 899.706,704.373 904.373,709.206 906.5,716.5C 907.667,744.827 907.833,773.161 907,801.5C 904.538,808.837 899.371,813.004 891.5,814C 898.431,830.137 904.431,846.637 909.5,863.5C 896.467,864.814 883.467,864.814 870.5,863.5C 865.467,846.691 860.134,830.024 854.5,813.5C 853.5,813.5 852.5,813.5 851.5,813.5C 851.5,830.5 851.5,847.5 851.5,864.5C 839.167,864.5 826.833,864.5 814.5,864.5C 814.5,810.167 814.5,755.833 814.5,701.5 Z M 851.5,730.5 C 857.5,730.5 863.5,730.5 869.5,730.5C 869.667,748.17 869.5,765.836 869,783.5C 863.464,785.425 857.631,786.092 851.5,785.5C 851.5,767.167 851.5,748.833 851.5,730.5 Z"/></g>
<g><path style="opacity:0.913" fill="#1c313f" d="M 917.5,701.5 C 930.167,701.5 942.833,701.5 955.5,701.5C 955.5,755.833 955.5,810.167 955.5,864.5C 942.833,864.5 930.167,864.5 917.5,864.5C 917.5,810.167 917.5,755.833 917.5,701.5 Z"/></g>
<g><path style="opacity:0.938" fill="#1c313f" d="M 971.5,701.5 C 994.167,701.5 1016.83,701.5 1039.5,701.5C 1041.75,712.418 1044.75,723.085 1048.5,733.5C 1040.5,733.5 1032.5,733.5 1024.5,733.5C 1024.5,777.167 1024.5,820.833 1024.5,864.5C 1011.83,864.5 999.167,864.5 986.5,864.5C 986.5,820.833 986.5,777.167 986.5,733.5C 978.5,733.5 970.5,733.5 962.5,733.5C 966.26,723.027 969.26,712.361 971.5,701.5 Z"/></g>
<g><path style="opacity:0.921" fill="#1c313f" d="M 1049.5,701.5 C 1062.5,701.5 1075.5,701.5 1088.5,701.5C 1093.75,724.79 1098.59,748.123 1103,771.5C 1107.52,748.091 1112.35,724.758 1117.5,701.5C 1130.17,701.5 1142.83,701.5 1155.5,701.5C 1145.61,740.777 1135.11,779.777 1124,818.5C 1123.5,833.83 1123.33,849.163 1123.5,864.5C 1109.83,864.5 1096.17,864.5 1082.5,864.5C 1082.93,847.452 1082.43,830.452 1081,813.5C 1070.35,776.08 1059.85,738.747 1049.5,701.5 Z"/></g>
<g><path style="opacity:0.844" fill="#1c313f" d="M 344.5,771.5 C 346.484,771.383 348.15,772.05 349.5,773.5C 354.125,777.824 358.792,782.157 363.5,786.5C 364.5,804.154 364.833,821.821 364.5,839.5C 355.823,841.836 347.156,844.169 338.5,846.5C 338.333,823.164 338.5,799.831 339,776.5C 341.029,774.967 342.862,773.301 344.5,771.5 Z"/></g>
<g><path style="opacity:0.853" fill="#1c313f" d="M 451.5,771.5 C 454.627,772.564 457.627,773.897 460.5,775.5C 460.833,801.509 460.5,827.509 459.5,853.5C 456.745,859.579 452.078,863.579 445.5,865.5C 444.522,865.023 443.689,864.357 443,863.5C 440.779,857.39 438.279,851.39 435.5,845.5C 434.167,825.833 434.167,806.167 435.5,786.5C 440.775,782.06 446.109,777.06 451.5,771.5 Z"/></g>
<g><path style="opacity:0.884" fill="#1c313f" d="M 359.5,842.5 C 383.502,842.333 407.502,842.5 431.5,843C 435.322,850.072 438.322,857.572 440.5,865.5C 411.498,865.667 382.498,865.5 353.5,865C 344.913,863.247 339.913,858.08 338.5,849.5C 344.215,848.309 349.881,846.809 355.5,845C 355.167,844.667 354.833,844.333 354.5,844C 356.382,843.802 358.048,843.302 359.5,842.5 Z"/></g>
</svg>
